<svg xmlns="http://www.w3.org/2000/svg" width="470" height="100" viewBox="0 0 470 100"><path id="shape" fill="#231F20" fill-rule="evenodd" d="M306.623 1.48c-2.251-.069-3.378.305-3.378 1.122 4.094 2.452 6.14 5.72 6.14 9.807 0 1.634.27 2.727.82 3.269 1.905 4.086 4.912 5.312 9.006 3.677 4.363-2.177 6.275-5.58 5.732-10.215-.551-2.72-3.276-4.761-8.189-6.129-4.502-.951-7.88-1.463-10.13-1.531zm-99.845.39c-3.398-.052-4.54 1.692-3.427 5.23v19.61h-19.242c-1.638 0-4.503-1.36-8.597-4.086-1.913-.816-3.275-.95-4.094-.408-.82.55-1.097 1.777-.822 3.68V62.26c-.55 5.179 1.774 7.087 6.962 5.72 4.363-.267 6.407-2.587 6.14-6.948v-4.495h19.653v36.369c-.552 4.63 1.496 6.397 6.14 5.312 5.183-.818 7.638-3.135 7.37-6.947V56.95h19.651v4.904c0 4.086 1.638 5.586 4.913 4.494 6.55-.543 9.547-3.271 9.005-8.174V32.43l.82-.818c1.088-.542 1.907-1.225 2.457-2.043-2.732-4.902-7.644-8.44-14.738-10.623-1.095.274-2.457 1.909-4.094 4.903-.819 1.634-1.37 2.452-1.638 2.452H216.86V7.916l.819-.817c3-2.72.268-4.354-8.188-4.903-1.025-.204-1.93-.313-2.714-.325zm245.08 1.143c-.819.275-1.913 1.367-3.276 3.269-1.093 1.092-1.779 1.634-2.047 1.634h-52.813c-6.826-2.452-10.644-3.68-11.463-3.68-1.369 0-1.913 1.092-1.637 3.27v84.99c-.276 2.45.818 3.536 3.275 3.269 5.456-.817 8.188-2.452 8.188-4.904V75.743c4.094-3.81 9.55-10.623 16.378-20.43.82 3.27 1.228 5.996 1.228 8.174.268 5.178 2.866 6.946 7.778 5.312-2.188 3-4.912 6.13-8.187 9.398-2.457 2.452-3.416 3.818-2.866 4.086 9.826-4.903 18.832-13.344 27.02-25.334.545 2.183.82 5.044.82 8.581.268 4.903 2.049 7.087 5.323 6.538 5.182-.818 7.504-4.086 6.96-9.807-1.37-5.446-4.095-10.891-8.19-16.344.818-2.451 1.906-5.58 3.275-9.398.818-2.176 1.498-3.811 2.048-4.903.544-1.36 1.362-2.586 2.456-3.678 1.086-1.085 1.772-2.176 2.047-3.269-3.55-3.811-8.598-5.72-15.148-5.72-.551.274-.819 1.226-.819 2.86-.275 4.36-1.094 9.398-2.456 15.119-.818-.544-1.913-1.36-3.275-2.452-2.457-2.452-4.779-4.765-6.96-6.949.268-.542.952-1.083 2.047-1.632.82-.543 1.228-.953 1.228-1.228-3.276-3.812-7.92-5.72-13.92-5.72-.82.274-1.228 1.636-1.228 4.088 0 4.086-.41 8.447-1.23 13.075-3.007-2.994-7.78-7.216-14.33-12.669v-6.535c-.55-4.904 1.639-7.214 6.551-6.946h50.766v69.054c0 3.543-4.504 5.587-13.51 6.13l-3.685.408c-.275.274.268.408 1.638.408 5.455 1.086 8.597 2.994 9.416 5.72 0 .269.135.818.41 1.635.542 2.72 3 3.678 7.369 2.86 8.188-.548 11.873-4.36 11.053-11.44V16.497c0-.268.544-.816 1.638-1.634 1.906-.818 2.866-1.634 2.866-2.452-5.188-4.903-10.101-8.031-14.739-9.398zM5 12.31v4.172c1.06.079 2.483.314 4.27.705 1.785.393 3.209.843 4.268 1.351 1.373.628 2.275 1.44 2.707 2.44.432.998.65 2.144.65 3.437V84.59c0 1.41-.266 2.616-.795 3.615-.53.998-1.384 1.753-2.562 2.261-.588.276-1.865.501-3.828.677-1.963.175-3.532.304-4.71.382v4.172h36.212v-4.172c-1.022-.038-2.513-.255-4.475-.646-1.964-.391-3.24-.723-3.827-.997-1.296-.625-2.2-1.446-2.71-2.463-.51-1.017-.764-2.171-.764-3.46V55.267h9.621c2.518 0 4.672.265 6.463.793a8.89 8.89 0 0 1 4.457 2.97c.787.98 1.523 2.565 2.212 4.758.689 2.195 1.092 4.155 1.21 5.879h4.416V36.875H53.4c-.199 2.076-.621 4.027-1.27 5.848-.65 1.82-1.366 3.163-2.153 4.024a10.498 10.498 0 0 1-4.134 2.79c-1.612.609-3.875.914-6.786.914h-9.62V16.954H43.45c2.12 0 4.012.038 5.68.117 1.67.078 3.11.195 4.328.351 2.394.354 4.898 2.293 7.508 5.82 2.61 3.526 4.326 6.836 5.15 9.929h4.416v-20.86H5zm74.095 0v22.623h4.12c.354-1.294.983-2.926 1.887-4.906a39.951 39.951 0 0 1 3.12-5.612 30.94 30.94 0 0 1 3.857-4.73c1.393-1.39 2.739-2.163 4.033-2.32a60.197 60.197 0 0 1 5.181-.382 139.73 139.73 0 0 1 4.534-.088h3.414v67.227c0 1.607-.306 2.89-.913 3.85-.61.961-1.56 1.695-2.855 2.204-.863.35-2.424.646-4.68.881-2.258.235-3.935.392-5.034.47v4.172h39.446v-4.172c-1.257-.038-3.012-.294-5.27-.764-2.257-.47-3.737-.842-4.444-1.116-1.374-.589-2.337-1.42-2.885-2.498-.55-1.077-.826-2.263-.826-3.555v-66.7h3.423c1.575 0 3.286.04 5.135.117 1.85.079 3.383.198 4.603.354 1.298.196 2.646.969 4.043 2.32 1.398 1.35 2.684 2.928 3.866 4.73a45.188 45.188 0 0 1 3.097 5.496c.924 1.938 1.565 3.614 1.918 5.024h4.062V12.31H79.095zm270.822.918c-1.095 0-3.007 2.043-5.732 6.13-1.912 3-3.008 4.494-3.276 4.494h-67.141c-1.094.275-1.638.684-1.638 1.226.27.55 1.088.817 2.456.817h20.882c2.725 16.619 7.638 30.377 14.739 41.27-9.007 10.898-21.839 20.43-38.484 28.602-3.275 2.72-.82 2.86 7.369.408 16.1-5.995 28.927-12.8 38.484-20.43 7.913 7.905 17.873 14.027 29.886 18.387 3.818 1.36 6 .543 6.55-2.451 1.638-3.818 4.095-6.397 7.37-7.764.543-.267 1.227-.677 2.047-1.225 2.455-1.086 2.59-1.903.41-2.452-16.377-2.72-28.936-7.898-37.668-15.527 4.914-7.08 9.687-17.023 14.331-29.83.27-.818 1.088-1.769 2.456-2.86 1.087-.819 1.773-1.769 2.048-2.861-.275-1.086-3.143-2.175-8.6-3.267h23.745c1.638.275 2.592 0 2.866-.817.268-.542-.14-1.494-1.228-2.86-5.187-5.446-9.148-8.44-11.872-8.99zm-52.814 12.667H327.4c-3.008 13.076-6.691 23.43-11.055 31.052-7.919-6.805-14.33-17.159-19.242-31.052zm94.982 0c4.094 4.635 8.188 10.763 12.282 18.385-3.007 11.716-7.1 21.248-12.282 28.603V25.895zm-203.88 2.452h15.148v26.56h-19.654v-23.7c-.275-1.903 1.23-2.86 4.506-2.86zm28.656 0h19.651v26.56h-19.651v-26.56zm201.835 1.634c3.544 4.903 6.55 9.806 9.006 14.71a105.375 105.375 0 0 1-6.55 17.57c-.818-4.904-3.414-10.626-7.777-17.163.544-1.36 1.636-4.493 3.273-9.396a47.78 47.78 0 0 1 2.048-5.72z"/></svg>
