<svg xmlns="http://www.w3.org/2000/svg" width="100" height="100"><rect width="100%" height="100%" fill="#d66d06" rx="5" ry="5"/><path d="M34.198 75.15c0 5.158-4.192 9.35-9.35 9.35-5.157 0-9.349-4.192-9.349-9.35 0-5.156 4.192-9.348 9.35-9.348a9.34 9.34 0 0 1 9.349 9.349zM15.499 38.949v13.846c17.403.178 31.503 14.303 31.681 31.68h13.846c-.178-25.05-20.451-45.348-45.527-45.526zm0-9.68c14.71.077 28.53 5.818 38.922 16.235C64.837 55.919 70.604 69.765 70.655 84.5H84.5c-.077-38.083-30.919-68.95-69.002-69.077v13.846z" fill="#fff"/></svg>