<svg xmlns="http://www.w3.org/2000/svg" width="100" height="100"><rect width="100%" height="100%" fill="#27757b"/><path fill="#fff" d="M63.668 36.71c-3.069 0-5.996 1.18-8.246 3.313l4.303 4.735a5.705 5.705 0 0 1 3.943-1.582h12.5c3.197 0 5.797 2.657 5.797 5.926v4.3c0 3.27-2.6 5.926-5.797 5.926h-12.5c-1.467 0-2.87-.56-3.943-1.584l-4.303 4.735c2.248 2.134 5.177 3.312 8.244 3.312h12.5v.002c6.683 0 12.12-5.56 12.12-12.39v-4.301c0-6.832-5.435-12.391-12.118-12.391h-12.5zm-39.008.003c-6.68 0-12.117 5.558-12.117 12.39V53.4c0 6.833 5.436 12.391 12.117 12.391h12.5l-.004.002c3.069 0 5.996-1.177 8.246-3.313l-4.3-4.734a5.708 5.708 0 0 1-3.944 1.582h-12.5c-3.197 0-5.797-2.657-5.797-5.926v-4.3c0-3.27 2.6-5.926 5.797-5.926h12.5c1.469 0 2.869.56 3.944 1.584l4.302-4.735c-2.25-2.136-5.175-3.312-8.244-3.312h-12.5zm39.781 11.566v.002H36.387c-1.524 0-4.178.871-4.178 2.317v1.625c0 1.445 2.656 1.863 4.178 1.863H64.44c1.522 0 1.844-.417 1.844-1.86v-1.628c0-1.446-.322-2.319-1.844-2.319z"/></svg>