<svg xmlns="http://www.w3.org/2000/svg" width="100" height="100"><rect width="100%" height="100%" fill="#e6162d"/><path fill="#fff" d="M66.146 21.646c-1.192.02-2.385.155-3.558.405a2.68 2.68 0 0 0-2.057 3.18 2.671 2.671 0 0 0 3.178 2.054c4.453-.946 9.272.437 12.537 4.059a13.163 13.163 0 0 1 2.752 12.883 2.682 2.682 0 0 0 5.102 1.65v-.008a18.485 18.485 0 0 0-3.875-18.11c-3.736-4.143-8.912-6.201-14.079-6.113zm-21.724 8.002c-4.936-.09-12.377 3.823-18.99 10.436C18.835 46.681 15 53.683 15 59.738c0 11.57 14.844 18.612 29.361 18.612 19.038 0 31.702-11.059 31.702-19.838.01-5.312-4.463-8.327-8.481-9.573-.985-.299-1.662-.49-1.15-1.785 1.12-2.81 1.236-5.236.02-6.974-2.27-3.245-8.49-3.07-15.618-.086 0 0-2.242.974-1.662-.793 1.091-3.525.928-6.47-.772-8.18-.965-.968-2.333-1.442-3.978-1.473zm22.467 1.52a9.014 9.014 0 0 0-2.31.193c-1.247.261-2.039 1.499-1.778 2.744a2.303 2.303 0 0 0 2.734 1.768 4.416 4.416 0 0 1 4.2 1.352 4.41 4.41 0 0 1 .917 4.318 2.315 2.315 0 0 0 1.489 2.906 2.312 2.312 0 0 0 2.908-1.486 9.02 9.02 0 0 0-1.885-8.828 8.981 8.981 0 0 0-6.275-2.967zm-23.04 14.71c13.088 0 23.704 6.607 23.704 14.759 0 8.151-10.616 14.758-23.703 14.758-13.088 0-23.702-6.607-23.702-14.758 0-8.152 10.614-14.758 23.702-14.758zm-1.437 6.245c-4.569.048-9.046 2.606-10.992 6.553-2.444 4.954-.077 10.46 5.486 12.256 5.776 1.864 12.575-.995 14.942-6.336 2.337-5.235-.58-10.614-6.287-12.092a11.968 11.968 0 0 0-3.149-.381zm1.54 6.469c.183-.004.365.026.536.094.696.25.947 1.033.56 1.738-.405.695-1.304 1.024-2 .734-.695-.28-.907-1.062-.51-1.738a1.721 1.721 0 0 1 1.413-.828zm-5.315 1.63a3.79 3.79 0 0 1 1.418.29c1.816.782 2.396 2.838 1.295 4.644-1.12 1.787-3.526 2.57-5.332 1.748-1.778-.811-2.308-2.886-1.188-4.634.833-1.304 2.345-2.066 3.807-2.047z"/></svg>