<svg xmlns="http://www.w3.org/2000/svg" width="100" height="100"><rect width="100%" height="100%" fill="#0977b6"/><path d="M27.211 20C23.225 20 20 23.237 20 27.22c0 3.988 3.226 7.224 7.211 7.224 3.976 0 7.207-3.235 7.207-7.223 0-3.983-3.231-7.22-7.206-7.22zm37.873 18.926c-6.049 0-10.106 3.322-11.767 6.473h-.166v-5.477H41.225V80H53.65V60.174c0-5.227.992-10.289 7.462-10.289 6.377 0 6.463 5.977 6.463 10.624V80H80V58.016c0-10.79-2.323-19.091-14.916-19.091zm-44.093.997V80h12.434V39.923H20.991z" fill="#fff"/></svg>