<svg xmlns="http://www.w3.org/2000/svg" width="100" height="100"><rect width="100%" height="100%" fill="#609700"/><path d="M35.27 21.42C14.608 25.124 7.722 48.562 24.156 59.29c.901.581.901.517-.452 4.567l-1.16 3.468 4.163-2.24 4.163-2.24 2.208.538c2.317.581 5.278.99 7.251.99h1.181l-.407-1.572c-3.239-11.978 7.96-23.846 22.528-23.846h1.973l-.408-1.422C62 26.31 48.505 19.052 35.268 21.42zm-1.803 10.49c2.187 1.487 2.317 4.697.214 6.075-3.41 2.24-7.4-1.702-5.106-5.062 1.008-1.508 3.433-2.003 4.892-1.013zm17.592 0c3.605 2.435.901 8.057-3.132 6.506-2.917-1.12-3.26-5.147-.536-6.59 1.073-.583 2.746-.539 3.669.085zm7.96 8.876c-10.233 1.872-17.334 9.671-16.927 18.633.537 11.998 14.546 20.27 27.997 16.565l1.587-.431 3.346 1.81c1.847 1.012 3.39 1.745 3.433 1.658.044-.107-.32-1.4-.793-2.887-1.072-3.317-1.093-3.08.344-4.113 16.176-11.655 1.973-35.05-18.987-31.237zm-.407 9.671c.901.604 1.374 2.111.986 3.21-.815 2.349-4.314 2.521-5.257.26-1.073-2.608 1.888-5.02 4.27-3.469zm14.33.258c1.416 1.356 1.182 3.663-.472 4.524-2.531 1.292-5.191-1.292-3.882-3.77.857-1.594 3.067-1.981 4.355-.754zM53.79 73.988" fill="#fff"/></svg>