<svg xmlns="http://www.w3.org/2000/svg" width="100" height="100"><rect width="100%" height="100%" fill="#6aa9e0"/><path d="M85 28.29a28.715 28.715 0 0 1-8.248 2.262 14.404 14.404 0 0 0 6.314-7.946 28.755 28.755 0 0 1-9.12 3.486 14.343 14.343 0 0 0-10.482-4.536c-7.932 0-14.362 6.43-14.362 14.361 0 1.126.127 2.222.372 3.273-11.936-.599-22.518-6.316-29.601-15.005a14.293 14.293 0 0 0-1.944 7.22c0 4.983 2.535 9.378 6.389 11.954a14.303 14.303 0 0 1-6.505-1.797 9.01 9.01 0 0 0-.002.18c0 6.96 4.95 12.764 11.52 14.083a14.384 14.384 0 0 1-6.485.246c1.828 5.706 7.131 9.858 13.416 9.974a28.816 28.816 0 0 1-17.836 6.147 29.22 29.22 0 0 1-3.426-.2 40.65 40.65 0 0 0 22.014 6.452c26.416 0 40.861-21.884 40.861-40.861 0-.623-.014-1.242-.041-1.858A29.187 29.187 0 0 0 85 28.29" fill="#fff"/></svg>