<svg xmlns="http://www.w3.org/2000/svg" width="100" height="100" viewBox="0 0 100 100"><path d="M92.597 0H7.38C3.31 0 0 3.228 0 7.206v85.58C0 96.765 3.31 100 7.38 100h85.217c4.08 0 7.403-3.233 7.403-7.215V7.205C100 3.23 96.677 0 92.597 0" fill="#0977b6"/><path d="M23.413 15C18.763 15 15 18.777 15 23.424c0 4.652 3.764 8.427 8.413 8.427 4.638 0 8.408-3.774 8.408-8.426 0-4.647-3.77-8.424-8.407-8.424zm44.185 22.08c-7.057 0-11.79 3.876-13.728 7.552h-.194v-6.39H39.762V85h14.496V61.87c0-6.098 1.158-12.004 8.706-12.004 7.44 0 7.54 6.973 7.54 12.395V85H85V59.352c0-12.588-2.71-22.273-17.402-22.273zm-51.442 1.163V85h14.507V38.243H16.156z" fill="#fff"/></svg>