<svg xmlns="http://www.w3.org/2000/svg" width="100" height="100" viewBox="0 0 100 100"><path d="M23.677 15.347c-4.604 0-8.33 3.74-8.33 8.34 0 4.606 3.726 8.344 8.33 8.344 4.59 0 8.324-3.737 8.324-8.343 0-4.6-3.732-8.34-8.323-8.34zm43.747 21.86c-6.988 0-11.675 3.838-13.592 7.478h-.193V38.36H39.863v46.293h14.352v-22.9c0-6.038 1.146-11.886 8.62-11.886 7.365 0 7.465 6.904 7.465 12.272v22.513h14.353V59.26c0-12.464-2.684-22.053-17.23-22.053zM16.49 38.36v46.293h14.365V38.36H16.49z" fill="#0977b6"/></svg>