<svg xmlns="http://www.w3.org/2000/svg" viewBox="0 0 99.999998 100" width="100" height="100"><rect width="100" height="100" rx="10" ry="10" fill="#e6162d"/><path d="M15.884 62.156c0 9.316 12.13 16.866 27.088 16.866 14.957 0 27.09-7.55 27.09-16.866 0-9.316-12.133-16.866-27.09-16.866s-27.088 7.55-27.088 16.866" fill="#e6162d"/><path d="M43.612 77.654c-13.246 1.313-24.682-4.68-25.543-13.367-.862-8.698 9.183-16.8 22.418-18.114C53.735 44.86 65.17 50.853 66.02 59.54c.873 8.698-9.172 16.81-22.408 18.114M70.094 48.79c-1.126-.343-1.9-.564-1.314-2.043 1.28-3.212 1.413-5.983.022-7.97-2.594-3.708-9.703-3.51-17.85-.1 0 0-2.56 1.116-1.898-.904 1.248-4.03 1.06-7.395-.883-9.35C43.757 24 32 28.59 21.923 38.668 14.382 46.207 10 54.21 10 61.13 10 74.353 26.966 82.4 43.557 82.4c21.757 0 36.23-12.64 36.23-22.672.01-6.07-5.1-9.515-9.693-10.94M84.543 24.583c-5.254-5.83-13.003-8.047-20.156-6.524-1.656.352-2.705 1.986-2.35 3.63.352 1.656 1.975 2.705 3.63 2.352 5.09-1.082 10.597.496 14.328 4.636 3.73 4.14 4.747 9.78 3.146 14.724-.517 1.612.366 3.334 1.977 3.853 1.612.52 3.334-.364 3.853-1.965v-.01c2.252-6.944.828-14.88-4.427-20.697" fill="#fff"/><path d="M76.474 31.868c-2.56-2.837-6.336-3.92-9.813-3.168-1.423.298-2.328 1.71-2.03 3.135.31 1.423 1.71 2.33 3.124 2.02 1.7-.365 3.554.165 4.8 1.545 1.25 1.39 1.59 3.278 1.05 4.934-.44 1.38.31 2.87 1.7 3.322 1.39.442 2.87-.31 3.323-1.7 1.092-3.388.408-7.252-2.153-10.088M44.34 61.913c-.463.795-1.49 1.17-2.284.84-.795-.32-1.038-1.215-.585-1.988.465-.772 1.447-1.148 2.23-.84.795.288 1.082 1.183.64 1.988m-4.227 5.41c-1.28 2.04-4.03 2.935-6.093 1.997-2.03-.927-2.638-3.3-1.358-5.298 1.27-1.987 3.92-2.87 5.972-2.01 2.075.895 2.738 3.246 1.48 5.31m4.812-14.46c-6.303-1.645-13.423 1.5-16.16 7.053-2.793 5.663-.09 11.955 6.27 14.008 6.6 2.13 14.372-1.137 17.076-7.24 2.67-5.984-.662-12.132-7.186-13.82" fill="#fff"/></svg>