<?xml version="1.0" encoding="UTF-8" standalone="no"?>
<!-- Created with Inkscape (http://www.inkscape.org/) -->

<svg
   xmlns:dc="http://purl.org/dc/elements/1.1/"
   xmlns:cc="http://creativecommons.org/ns#"
   xmlns:rdf="http://www.w3.org/1999/02/22-rdf-syntax-ns#"
   xmlns:svg="http://www.w3.org/2000/svg"
   xmlns="http://www.w3.org/2000/svg"
   xmlns:sodipodi="http://sodipodi.sourceforge.net/DTD/sodipodi-0.dtd"
   xmlns:inkscape="http://www.inkscape.org/namespaces/inkscape"
   width="100"
   height="100"
   viewBox="0 0 100 100"
   id="svg2"
   version="1.1"
   inkscape:version="0.91 r13725"
   sodipodi:docname="social-linkedin.svg">
  <defs
     id="defs4" />
  <sodipodi:namedview
     id="base"
     pagecolor="#ffffff"
     bordercolor="#666666"
     borderopacity="1.0"
     inkscape:pageopacity="0.0"
     inkscape:pageshadow="2"
     inkscape:zoom="5.83"
     inkscape:cx="35.67753"
     inkscape:cy="50"
     inkscape:document-units="px"
     inkscape:current-layer="layer1"
     showgrid="true"
     units="px"
     inkscape:showpageshadow="false"
     inkscape:window-width="1440"
     inkscape:window-height="785"
     inkscape:window-x="0"
     inkscape:window-y="1"
     inkscape:window-maximized="1">
    <inkscape:grid
       type="xygrid"
       id="grid4138" />
  </sodipodi:namedview>
  <metadata
     id="metadata7">
    <rdf:RDF>
      <cc:Work
         rdf:about="">
        <dc:format>image/svg+xml</dc:format>
        <dc:type
           rdf:resource="http://purl.org/dc/dcmitype/StillImage" />
        <dc:title />
      </cc:Work>
    </rdf:RDF>
  </metadata>
  <g
     inkscape:label="Layer 1"
     inkscape:groupmode="layer"
     id="layer1"
     transform="translate(0,-952.36216)">
    <g
       transform="matrix(0.69442515,0,0,-0.69444444,0,1052.3622)"
       inkscape:label="ink_ext_XXXXXX"
       id="g4163">
      <g
         transform="scale(0.1,0.1)"
         id="g4165">
        <path
           style="fill:#0977b6;fill-opacity:1;fill-rule:nonzero;stroke:none"
           d="M 340.95147,1219.0105 C 274.65587,1219.0105 220.99624,1165.1657 220.99624,1098.9104 220.99624,1032.586 274.65587,978.75449 340.95147,978.75449 407.07285,978.75449 460.82507,1032.586 460.82507,1098.9104 460.82507,1165.1657 407.07285,1219.0105 340.95147,1219.0105 Z M 970.9346,904.21686 C 870.30906,904.21686 802.8146,848.94774 775.20372,796.53001 L 772.42551,796.53001 772.42551,887.62868 574.05262,887.62868 574.05262,220.99067 780.73299,220.99067 780.73299,550.76284 C 780.73299,637.70828 797.23907,721.91043 904.8557,721.91043 1010.9156,721.91043 1012.3636,622.49901 1012.3636,545.19711 L 1012.3636,220.99067 1219.0437,220.99067 1219.0437,586.66754 C 1219.0437,766.13825 1180.3924,904.21686 970.9346,904.21686 Z M 237.47516,887.62868 237.47516,220.99067 444.31901,220.99067 444.31901,887.62868 237.47516,887.62868 Z"
           id="path4169"
           inkscape:connector-curvature="0" />
      </g>
    </g>
  </g>
</svg>
