<?xml version="1.0" encoding="UTF-8" standalone="no"?>
<!-- Generator: Adobe Illustrator 18.0.0, SVG Export Plug-In . SVG Version: 6.00 Build 0)  -->

<svg
   xmlns:dc="http://purl.org/dc/elements/1.1/"
   xmlns:cc="http://creativecommons.org/ns#"
   xmlns:rdf="http://www.w3.org/1999/02/22-rdf-syntax-ns#"
   xmlns:svg="http://www.w3.org/2000/svg"
   xmlns="http://www.w3.org/2000/svg"
   xmlns:sodipodi="http://sodipodi.sourceforge.net/DTD/sodipodi-0.dtd"
   xmlns:inkscape="http://www.inkscape.org/namespaces/inkscape"
   version="1.1"
   id="Layer_1"
   x="0px"
   y="0px"
   viewBox="0 0 99.999998 100"
   enable-background="new 0 0 724.7 587.1"
   xml:space="preserve"
   inkscape:version="0.91 r13725"
   sodipodi:docname="social-weibo.svg"
   width="100"
   height="100"><metadata
     id="metadata17"><rdf:RDF><cc:Work
         rdf:about=""><dc:format>image/svg+xml</dc:format><dc:type
           rdf:resource="http://purl.org/dc/dcmitype/StillImage" /><dc:title /></cc:Work></rdf:RDF></metadata><defs
     id="defs15" /><sodipodi:namedview
     pagecolor="#ffffff"
     bordercolor="#666666"
     borderopacity="1"
     objecttolerance="10"
     gridtolerance="10"
     guidetolerance="10"
     inkscape:pageopacity="0"
     inkscape:pageshadow="2"
     inkscape:window-width="1920"
     inkscape:window-height="955"
     id="namedview13"
     showgrid="true"
     inkscape:showpageshadow="false"
     inkscape:zoom="7.89"
     inkscape:cx="-23.510773"
     inkscape:cy="50"
     inkscape:window-x="24"
     inkscape:window-y="170"
     inkscape:window-maximized="0"
     inkscape:current-layer="Layer_1"><inkscape:grid
       type="xygrid"
       id="grid4137" /></sodipodi:namedview><g
     id="g4139"
     transform="matrix(0.80002718,0,0,0.7999932,10.088036,10.473967)"><path
       style="fill:#ffffff"
       inkscape:connector-curvature="0"
       id="path3"
       d="M 7.2441449,64.603298 C 7.2441449,76.248568 22.40783,85.686203 41.103733,85.686203 59.799634,85.686203 74.963323,76.248568 74.963323,64.603298 74.963323,52.958029 59.799634,43.520394 41.103733,43.520394 22.40783,43.520394 7.2441449,52.958029 7.2441449,64.603298" /><path
       style="fill:#e6162d"
       inkscape:connector-curvature="0"
       id="path5"
       d="M 41.903998,83.97529 C 25.346743,85.617217 11.052314,78.125055 9.9760919,67.266257 8.8998705,56.393662 21.455789,46.266134 37.999247,44.624206 54.556505,42.982288 68.850934,50.474441 69.913358,61.333239 71.003377,72.205833 58.447461,82.347158 41.903998,83.97529 M 75.004714,47.894266 C 73.597348,47.466541 72.63151,47.190587 73.362787,45.34169 74.963323,41.326556 75.128894,37.863333 73.390367,35.379744 70.147903,30.743712 61.262175,30.992068 51.079466,35.255566 51.079466,35.255566 47.878395,36.649129 48.706258,34.124155 50.265397,29.087981 50.030835,24.879683 47.602437,22.437489 42.083368,16.904605 27.388802,22.644449 14.791491,35.241771 5.3676518,44.665602 -0.11004035,54.668944 -0.11004035,63.320108 -0.11004035,79.849774 21.097044,89.908306 41.835008,89.908306 69.030299,89.908306 87.119102,74.109921 87.119102,61.567799 87.132922,53.97906 80.74456,49.674175 75.00471,47.894266" /><path
       style="fill:#ff9933"
       inkscape:connector-curvature="0"
       id="path7"
       d="M 93.065921,17.635885 C 86.49821,10.350692 76.812215,7.5773518 67.871298,9.4814391 L 67.871298,9.4814391 C 65.801639,9.9229583 64.490856,11.965018 64.932383,14.020884 65.373909,16.090544 67.402176,17.401326 69.471831,16.959796 75.832579,15.60762 82.717638,17.580694 87.381265,22.754831 92.04489,27.928977 93.314279,34.979611 91.313613,41.160983 L 91.313613,41.160983 C 90.665121,43.175452 91.768934,45.327894 93.783403,45.976393 95.797874,46.62488 97.950317,45.521059 98.598805,43.520394 98.598805,43.520394 98.598805,43.506594 98.598805,43.506594 101.41354,34.827838 99.63363,24.907278 93.065921,17.63589" /><path
       style="fill:#ff9933"
       inkscape:connector-curvature="0"
       id="path9"
       d="M 82.979792,26.742374 C 79.778723,23.196359 75.059906,21.844183 70.713624,22.782431 68.933721,23.154973 67.802308,24.921078 68.174845,26.700978 68.561181,28.480889 70.31349,29.6123 72.0796,29.225963 L 72.0796,29.225963 C 74.204447,28.770639 76.522462,29.432932 78.081604,31.157641 79.640747,32.896155 80.068475,35.255566 79.392387,37.325218 L 79.392387,37.325218 C 78.84048,39.049936 79.778723,40.912628 81.517235,41.478334 83.255748,42.030244 85.104639,41.091996 85.670347,39.353482 87.036318,35.117584 86.18086,30.288389 82.979792,26.742374" /><path
       inkscape:connector-curvature="0"
       id="path11"
       d="M 42.814648,64.299753 C 42.235146,65.293182 40.951959,65.762302 39.958525,65.348373 38.965087,64.948241 38.661539,63.830624 39.227244,62.864785 39.806747,61.898945 41.034746,61.429826 42.014382,61.816164 43.007816,62.174901 43.366559,63.292517 42.814648,64.299753 M 37.530125,71.060626 C 35.929591,73.613201 32.49396,74.730818 29.913788,73.55801 27.375008,72.399007 26.616133,69.432494 28.216669,66.93511 29.803405,64.451521 33.114857,63.347709 35.681231,64.42393 38.275202,65.541537 39.103066,68.48046 37.530125,71.060626 M 43.545928,52.98562 C 35.667433,50.929765 26.767908,54.862117 23.346075,61.802358 19.855254,68.880592 23.235694,76.745287 31.183177,79.311658 39.43421,81.974615 49.147801,77.890495 52.528239,70.26036 55.867287,62.782003 51.700377,55.096676 43.545928,52.98562" /></g></svg>