<?xml version="1.0" encoding="UTF-8" standalone="no"?>
<svg
   xmlns:dc="http://purl.org/dc/elements/1.1/"
   xmlns:cc="http://creativecommons.org/ns#"
   xmlns:rdf="http://www.w3.org/1999/02/22-rdf-syntax-ns#"
   xmlns:svg="http://www.w3.org/2000/svg"
   xmlns="http://www.w3.org/2000/svg"
   xmlns:sodipodi="http://sodipodi.sourceforge.net/DTD/sodipodi-0.dtd"
   xmlns:inkscape="http://www.inkscape.org/namespaces/inkscape"
   version="1.1"
   x="0px"
   y="0px"
   width="100"
   height="100"
   viewBox="0 0 100 100"
   id="svg2"
   inkscape:version="0.91 r13725"
   sodipodi:docname="social-wechat.svg">
  <metadata
     id="metadata11">
    <rdf:RDF>
      <cc:Work
         rdf:about="">
        <dc:format>image/svg+xml</dc:format>
        <dc:type
           rdf:resource="http://purl.org/dc/dcmitype/StillImage" />
        <dc:title />
      </cc:Work>
    </rdf:RDF>
  </metadata>
  <sodipodi:namedview
     pagecolor="#ffffff"
     bordercolor="#666666"
     borderopacity="1"
     objecttolerance="10000"
     gridtolerance="10000"
     guidetolerance="10000"
     inkscape:pageopacity="0"
     inkscape:pageshadow="2"
     inkscape:window-width="1920"
     inkscape:window-height="955"
     id="namedview9"
     showgrid="true"
     inkscape:showpageshadow="false"
     inkscape:zoom="7.89"
     inkscape:cx="-5.1330793"
     inkscape:cy="50"
     inkscape:window-x="93"
     inkscape:window-y="151"
     inkscape:window-maximized="0"
     inkscape:current-layer="svg2">
    <inkscape:grid
       type="xygrid"
       id="grid4139" />
  </sodipodi:namedview>
  <g
     id="Layer 1"
     transform="matrix(0.21202987,0,0,0.21289917,7.5939973,7.4198721)"
     style="fill:#609700;fill-opacity:1">
    <path
       d="M 120.601,46.576 C 9.241,66.466 -27.879,192.281 60.7,249.869 65.557,252.991 65.557,252.645 58.271,274.385 L 52.027,293.002 74.461,280.976 96.895,268.95 108.806,271.841 C 121.294,274.963 137.253,277.16 147.891,277.16 L 154.252,277.16 152.054,268.718 C 134.593,204.423 194.956,140.706 273.475,140.706 L 284.114,140.706 281.917,133.074 C 264.686,72.826 191.95,33.856 120.601,46.576 Z M 110.887,102.892 C 122.682,110.872 123.376,128.102 112.043,135.503 93.657,147.529 72.148,126.367 84.521,108.327 89.956,100.233 103.024,97.573 110.887,102.892 Z M 205.711,102.892 C 225.138,115.96 210.568,146.141 188.827,137.815 173.101,131.802 171.25,110.178 185.936,102.43 191.718,99.308 200.738,99.539 205.711,102.892 Z M 248.613,150.536 C 193.453,160.596 155.177,202.457 157.374,250.563 160.265,314.974 235.777,359.379 308.282,339.489 L 316.839,337.176 334.879,346.89 C 344.824,352.325 353.15,356.257 353.381,355.794 353.613,355.216 351.647,348.278 349.103,340.299 343.321,322.49 343.205,323.762 350.953,318.212 438.144,255.651 361.592,130.068 248.613,150.536 Z M 246.416,202.457 C 251.272,205.695 253.816,213.79 251.735,219.688 247.341,232.292 228.492,233.217 223.403,221.075 217.621,207.083 233.58,194.131 246.416,202.457 Z M 323.662,203.845 C 331.294,211.13 330.022,223.504 321.118,228.129 307.473,235.067 293.134,221.191 300.188,207.892 304.813,199.335 316.724,197.254 323.662,203.845 Z M 220.43,328.772"
       id="path5"
       inkscape:connector-curvature="0"
       style="fill:#609700;fill-opacity:1" />
  </g>
  <defs
     id="defs7" />
</svg>
