<?xml version="1.0" encoding="UTF-8"?><!DOCTYPE svg PUBLIC "-//W3C//DTD SVG 1.1//EN" "http://www.w3.org/Graphics/SVG/1.1/DTD/svg11.dtd"><svg xmlns="http://www.w3.org/2000/svg"><symbol id="social-linkedin-bg" viewBox="0 0 100 100"><path d="M92.597 0H7.38C3.31 0 0 3.228 0 7.206v85.58C0 96.765 3.31 100 7.38 100h85.217c4.08 0 7.403-3.233 7.403-7.215V7.205C100 3.23 96.677 0 92.597 0" fill="#0977b6"/><path d="M23.413 15C18.763 15 15 18.777 15 23.424c0 4.652 3.764 8.427 8.413 8.427 4.638 0 8.408-3.774 8.408-8.426 0-4.647-3.77-8.424-8.407-8.424zm44.185 22.08c-7.057 0-11.79 3.876-13.728 7.552h-.194v-6.39H39.762V85h14.496V61.87c0-6.098 1.158-12.004 8.706-12.004 7.44 0 7.54 6.973 7.54 12.395V85H85V59.352c0-12.588-2.71-22.273-17.402-22.273zm-51.442 1.163V85h14.507V38.243H16.156z" fill="#fff"/></symbol><symbol id="social-linkedin" viewBox="0 0 100 100"><path d="M23.677 15.347c-4.604 0-8.33 3.74-8.33 8.34 0 4.606 3.726 8.344 8.33 8.344 4.59 0 8.324-3.737 8.324-8.343 0-4.6-3.732-8.34-8.323-8.34zm43.747 21.86c-6.988 0-11.675 3.838-13.592 7.478h-.193V38.36H39.863v46.293h14.352v-22.9c0-6.038 1.146-11.886 8.62-11.886 7.365 0 7.465 6.904 7.465 12.272v22.513h14.353V59.26c0-12.464-2.684-22.053-17.23-22.053zM16.49 38.36v46.293h14.365V38.36H16.49z" fill="#0977b6"/></symbol><symbol id="social-wechat-bg" viewBox="0 0 100 100"><rect width="100" height="100" rx="10" ry="10" fill="#609700"/><path d="M33.165 17.336c-23.612 4.234-31.482 31.02-12.7 43.28 1.03.665 1.03.592-.516 5.22L18.624 69.8l4.757-2.56 4.757-2.56 2.524.615c2.648.664 6.032 1.132 8.287 1.132h1.35l-.466-1.797C36.132 50.94 48.93 37.376 65.58 37.376h2.255l-.466-1.625C63.714 22.925 48.292 14.63 33.164 17.337zm-2.06 11.99c2.5 1.698 2.648 5.367.245 6.942-3.898 2.56-8.458-1.945-5.835-5.785 1.152-1.724 3.923-2.29 5.59-1.158zm20.106 0c4.12 2.782 1.03 9.207-3.58 7.435-3.333-1.28-3.726-5.883-.612-7.533 1.226-.665 3.138-.615 4.193.098zm9.097 10.143c-11.695 2.14-19.81 11.053-19.345 21.295.613 13.713 16.624 23.166 31.997 18.932l1.813-.493 3.825 2.068c2.11 1.158 3.874 1.995 3.923 1.896.05-.123-.366-1.6-.906-3.3-1.226-3.79-1.25-3.52.393-4.7 18.487-13.32 2.255-40.057-21.7-35.7zm-.465 11.053c1.03.69 1.57 2.413 1.127 3.668-.932 2.685-4.93 2.882-6.008.297-1.226-2.98 2.158-5.737 4.88-3.964zm16.378.295c1.618 1.55 1.35 4.186-.54 5.17-2.893 1.477-5.933-1.477-4.437-4.308.98-1.822 3.506-2.265 4.977-.862zM54.332 77.415" fill="#fff"/></symbol><symbol id="social-wechat" viewBox="0 0 100 100"><path d="M33.165 17.336c-23.612 4.234-31.482 31.02-12.7 43.28 1.03.665 1.03.592-.516 5.22L18.624 69.8l4.757-2.56 4.757-2.56 2.524.615c2.648.664 6.032 1.132 8.287 1.132h1.35l-.466-1.797C36.132 50.94 48.93 37.376 65.58 37.376h2.255l-.466-1.625C63.714 22.925 48.292 14.63 33.164 17.337zm-2.06 11.99c2.5 1.698 2.648 5.367.245 6.942-3.898 2.56-8.458-1.945-5.835-5.785 1.152-1.724 3.923-2.29 5.59-1.158zm20.106 0c4.12 2.782 1.03 9.207-3.58 7.435-3.333-1.28-3.726-5.883-.612-7.533 1.226-.665 3.138-.615 4.193.098zm9.097 10.143c-11.695 2.14-19.81 11.053-19.345 21.295.613 13.713 16.624 23.166 31.997 18.932l1.813-.493 3.825 2.068c2.11 1.158 3.874 1.995 3.923 1.896.05-.123-.366-1.6-.906-3.3-1.226-3.79-1.25-3.52.393-4.7 18.487-13.32 2.255-40.057-21.7-35.7zm-.465 11.053c1.03.69 1.57 2.413 1.127 3.668-.932 2.685-4.93 2.882-6.008.297-1.226-2.98 2.158-5.737 4.88-3.964zm16.378.295c1.618 1.55 1.35 4.186-.54 5.17-2.893 1.477-5.933-1.477-4.437-4.308.98-1.822 3.506-2.265 4.977-.862zM54.332 77.415" fill="#609700"/></symbol><symbol id="social-weibo-bg" viewBox="0 0 99.999998 100"><rect width="100" height="100" rx="10" ry="10" fill="#e6162d"/><path d="M15.884 62.156c0 9.316 12.13 16.866 27.088 16.866 14.957 0 27.09-7.55 27.09-16.866 0-9.316-12.133-16.866-27.09-16.866s-27.088 7.55-27.088 16.866" fill="#e6162d"/><path d="M43.612 77.654c-13.246 1.313-24.682-4.68-25.543-13.367-.862-8.698 9.183-16.8 22.418-18.114C53.735 44.86 65.17 50.853 66.02 59.54c.873 8.698-9.172 16.81-22.408 18.114M70.094 48.79c-1.126-.343-1.9-.564-1.314-2.043 1.28-3.212 1.413-5.983.022-7.97-2.594-3.708-9.703-3.51-17.85-.1 0 0-2.56 1.116-1.898-.904 1.248-4.03 1.06-7.395-.883-9.35C43.757 24 32 28.59 21.923 38.668 14.382 46.207 10 54.21 10 61.13 10 74.353 26.966 82.4 43.557 82.4c21.757 0 36.23-12.64 36.23-22.672.01-6.07-5.1-9.515-9.693-10.94M84.543 24.583c-5.254-5.83-13.003-8.047-20.156-6.524-1.656.352-2.705 1.986-2.35 3.63.352 1.656 1.975 2.705 3.63 2.352 5.09-1.082 10.597.496 14.328 4.636 3.73 4.14 4.747 9.78 3.146 14.724-.517 1.612.366 3.334 1.977 3.853 1.612.52 3.334-.364 3.853-1.965v-.01c2.252-6.944.828-14.88-4.427-20.697" fill="#fff"/><path d="M76.474 31.868c-2.56-2.837-6.336-3.92-9.813-3.168-1.423.298-2.328 1.71-2.03 3.135.31 1.423 1.71 2.33 3.124 2.02 1.7-.365 3.554.165 4.8 1.545 1.25 1.39 1.59 3.278 1.05 4.934-.44 1.38.31 2.87 1.7 3.322 1.39.442 2.87-.31 3.323-1.7 1.092-3.388.408-7.252-2.153-10.088M44.34 61.913c-.463.795-1.49 1.17-2.284.84-.795-.32-1.038-1.215-.585-1.988.465-.772 1.447-1.148 2.23-.84.795.288 1.082 1.183.64 1.988m-4.227 5.41c-1.28 2.04-4.03 2.935-6.093 1.997-2.03-.927-2.638-3.3-1.358-5.298 1.27-1.987 3.92-2.87 5.972-2.01 2.075.895 2.738 3.246 1.48 5.31m4.812-14.46c-6.303-1.645-13.423 1.5-16.16 7.053-2.793 5.663-.09 11.955 6.27 14.008 6.6 2.13 14.372-1.137 17.076-7.24 2.67-5.984-.662-12.132-7.186-13.82" fill="#fff"/></symbol><symbol id="social-weibo" viewBox="0 0 99.999998 100"><path d="M15.884 62.156c0 9.316 12.13 16.866 27.088 16.866 14.957 0 27.09-7.55 27.09-16.866 0-9.316-12.133-16.866-27.09-16.866s-27.088 7.55-27.088 16.866" fill="#fff"/><path d="M43.612 77.654c-13.246 1.313-24.682-4.68-25.543-13.367-.862-8.698 9.183-16.8 22.418-18.114C53.735 44.86 65.17 50.853 66.02 59.54c.873 8.698-9.172 16.81-22.408 18.114M70.094 48.79c-1.126-.343-1.9-.564-1.314-2.043 1.28-3.212 1.413-5.983.022-7.97-2.594-3.708-9.703-3.51-17.85-.1 0 0-2.56 1.116-1.898-.904 1.248-4.03 1.06-7.395-.883-9.35C43.757 24 32 28.59 21.923 38.668 14.382 46.207 10 54.21 10 61.13 10 74.353 26.966 82.4 43.557 82.4c21.757 0 36.23-12.64 36.23-22.672.01-6.07-5.1-9.515-9.693-10.94" fill="#e6162d"/><path d="M84.543 24.583c-5.254-5.83-13.003-8.047-20.156-6.524-1.656.352-2.705 1.986-2.35 3.63.352 1.656 1.975 2.705 3.63 2.352 5.09-1.082 10.597.496 14.328 4.636 3.73 4.14 4.747 9.78 3.146 14.724-.517 1.612.366 3.334 1.977 3.853 1.612.52 3.334-.364 3.853-1.965v-.01c2.252-6.944.828-14.88-4.427-20.697" fill="#f93"/><path d="M76.474 31.868c-2.56-2.837-6.336-3.92-9.813-3.168-1.423.298-2.328 1.71-2.03 3.135.31 1.423 1.71 2.33 3.124 2.02 1.7-.365 3.554.165 4.8 1.545 1.25 1.39 1.59 3.278 1.05 4.934-.44 1.38.31 2.87 1.7 3.322 1.39.442 2.87-.31 3.323-1.7 1.092-3.388.408-7.252-2.153-10.088" fill="#f93"/><path d="M44.34 61.913c-.463.795-1.49 1.17-2.284.84-.795-.32-1.038-1.215-.585-1.988.465-.772 1.447-1.148 2.23-.84.795.288 1.082 1.183.64 1.988m-4.227 5.41c-1.28 2.04-4.03 2.935-6.093 1.997-2.03-.927-2.638-3.3-1.358-5.298 1.27-1.987 3.92-2.87 5.972-2.01 2.075.895 2.738 3.246 1.48 5.31m4.812-14.46c-6.303-1.645-13.423 1.5-16.16 7.053-2.793 5.663-.09 11.955 6.27 14.008 6.6 2.13 14.372-1.137 17.076-7.24 2.67-5.984-.662-12.132-7.186-13.82"/></symbol></svg>