<svg xmlns="http://www.w3.org/2000/svg" width="100" height="100" viewBox="0 0 100 100"><defs><linearGradient x1="50%" y1="0%" x2="50%" y2="100%" id="a"><stop stop-color="#FFE8CF" offset="0%"/><stop stop-color="#FFDDB9" offset="100%"/></linearGradient></defs><rect id="background" width="100%" height="100%" fill="url(#a)"/><path id="shape" fill-rule="evenodd" fill="#333" d="M9.739 10.708h37.37l.29 9.865h-1.857s-1.039-3.637-3.018-4.915c0 0-1.524-1.567-8.377-1.65H26.38s-2.145-.337-2.145 2.023V30.48h5.04s3.417 0 5.448-1.32c0 0 1.858-1.321 2.145-4.582H38.6v15.731h-1.733s-.453-3.347-2.23-4.748c0 0-1.65-1.65-5.528-1.775h-4.874v15.323s.04 2.635 1.115 3.501c0 0 1.03 1.199 5.41 1.163v1.687H9.62v-1.652s3.016 0 4.296-.906c0 0 1.19-.451 1.357-4.42v-31.87s-.044-2.19-1.32-3.266c0 0-1.113-.948-4.215-.906v-1.732zm40.466 0h39.221l.952 9.865h-2.276s-.99-3.095-2.111-4.292c0 0-1.358-2.023-4.742-2.19h-6.891v34.972s-.083 2.68 1.154 3.63c0 0 .829 1.033 5.118 1.079v1.687H59.037V53.85s2.65.078 4.131-.616c0 0 2.226-.58 2.19-3.968V14.009h-6.734s-2.883.082-4.623 1.898c0 0-1.609 1.694-2.414 4.666h-2.29l.908-9.865zm-3.587 53.573c-.622 0-.951.128-.987.383 1.097.659 1.645 1.536 1.645 2.633.072.438.146.732.22.877.51 1.025 1.352 1.317 2.523.878 1.097-.584 1.57-1.462 1.425-2.633-.147-.73-.841-1.316-2.084-1.755-1.206-.255-2.12-.383-2.742-.383zm-26.168.187c-.873-.014-1.19.453-.951 1.403v5.265h-5.155c-.148 0-.659-.22-1.536-.658-.367-.22-.623-.365-.768-.439-.44-.291-.768-.365-.988-.22-.219.148-.329.513-.329 1.098v9.763c-.073 1.316.55 1.792 1.865 1.425 1.169-.072 1.717-.658 1.645-1.755v-1.206h5.265v9.762c-.147 1.242.402 1.717 1.646 1.426 1.388-.148 2.046-.768 1.974-1.865v-9.323h5.265v1.425c0 1.025.439 1.426 1.317 1.207 1.755-.146 2.559-.878 2.413-2.194v-6.91c0-.072.11-.146.329-.22.29-.22.474-.4.548-.548-.658-1.388-1.974-2.34-3.949-2.852-.22.074-.548.512-.987 1.316-.293.512-.476.768-.548.768h-4.388V66.09c0-.072.072-.181.22-.329.803-.658.071-1.06-2.195-1.206a3.739 3.739 0 0 0-.693-.087zm65.631.306c-.22.074-.513.329-.878.768-.293.367-.476.548-.548.548h-14.15c-2.852-1.316-4.023-1.352-3.51-.11v22.706c-.074.804.22 1.133.877.988 1.608-.22 2.34-.696 2.194-1.426v-3.95c1.097-1.022 2.559-2.851 4.388-5.484.219.878.328 1.61.328 2.194.072 1.316.768 1.793 2.085 1.426a29.994 29.994 0 0 1-2.194 2.413c-.586.658-.842 1.062-.768 1.207 2.778-1.536 5.192-3.802 7.24-6.8.145.585.255 1.353.329 2.302 0 1.245.438 1.83 1.316 1.755 1.462-.29 2.084-1.169 1.865-2.632-.367-1.462-1.098-2.924-2.194-4.388.29-.658.62-1.497.988-2.523l.438-1.316a2.31 2.31 0 0 1 .769-1.097c.219-.291.364-.549.438-.768 0-.291-.586-.694-1.755-1.207-1.17-.438-1.938-.547-2.303-.328-.148.074-.22.328-.22.767-.074 1.17-.293 2.523-.658 4.06-.22-.146-.477-.402-.768-.77-.658-.583-1.317-1.168-1.975-1.754.072-.22.292-.401.658-.548l.22-.22c0-.365-.513-.768-1.536-1.207-1.097-.438-1.828-.547-2.193-.328-.22 0-.33.329-.33.987 0 1.17-.11 2.378-.328 3.62-.732-.804-2.012-1.937-3.84-3.4v-1.756c-.147-1.388.44-2.01 1.756-1.864h13.601v18.537c0 .878-1.207 1.39-3.62 1.536-.586.074-.915.147-.987.22l.33.11c1.535.218 2.412.693 2.632 1.425.072.146.11.329.11.549.219.73.877.987 1.974.767 2.265-.219 3.252-1.244 2.961-3.071V68.394c0-.073.182-.22.549-.439.438-.291.658-.51.658-.658-1.39-1.316-2.706-2.156-3.949-2.523zm-27.946 2.742c-.219 0-.695.548-1.425 1.645-.513.806-.842 1.207-.987 1.207h-17.99c-.293 0-.402.11-.329.329.072.147.256.22.549.22h5.594c.73 4.46 2.046 8.154 3.948 11.078-2.34 2.926-5.777 5.484-10.31 7.678-.878.73-.22.73 1.974 0 4.46-1.61 7.898-3.4 10.31-5.374 1.975 1.974 4.644 3.62 8.009 4.936 1.023.439 1.644.22 1.864-.658.439-1.025 1.06-1.718 1.865-2.085.146-.071.365-.18.658-.328.584-.365.584-.585 0-.659-4.316-.803-7.679-2.194-10.092-4.168 1.317-1.9 2.595-4.57 3.84-8.007.071-.292.329-.584.767-.878.292-.219.44-.439.44-.658 0-.291-.769-.584-2.305-.877h6.363c.438 0 .694-.072.767-.22.073-.146-.037-.401-.329-.767-1.316-1.536-2.377-2.34-3.18-2.414zm-14.15 3.4h8.118c-.732 3.439-1.72 6.217-2.962 8.337-2.048-1.827-3.767-4.607-5.156-8.336zm26.08 0c1.097 1.172 2.194 2.817 3.29 4.937-.73 3.07-1.828 5.632-3.29 7.678V70.917zm-54.932.647c.095 0 .197.003.306.012h4.059v7.13h-5.265v-6.362c-.065-.512.236-.77.9-.78zm7.985.012h5.265v7.13h-5.265v-7.13zm54.077.438a16.033 16.033 0 0 1 2.414 3.95 19.47 19.47 0 0 1-1.755 4.716c-.148-1.316-.842-2.852-2.084-4.607.219-.365.51-1.206.877-2.523.291-.73.475-1.242.548-1.536z"/></svg>
