<svg xmlns="http://www.w3.org/2000/svg" width="342" height="342" viewBox="0 0 342 342"><rect fill="#FCDBC0" width="100%" height="100%"/><g fill="#475257"><path d="M60.081 51.717h103.65l.803 27.359h-5.151s-2.878-10.087-8.371-13.631c0 0-4.227-4.349-23.234-4.576h-21.545s-5.95-.938-5.95 5.608v40.073h13.979s9.482 0 15.111-3.662c0 0 5.154-3.662 5.947-12.709h4.807v43.633h-4.807s-1.254-9.283-6.186-13.169c0 0-4.577-4.576-15.333-4.922h-13.518v42.501s.117 7.308 3.097 9.708c0 0 2.853 3.324 15.003 3.224v4.678H59.751v-4.579s8.365 0 11.915-2.515c0 0 3.304-1.251 3.765-12.256V68.089s-.123-6.074-3.661-9.061c0 0-3.088-2.628-11.689-2.51v-4.801zM170.821 51.717h108.786l2.642 27.359h-6.312s-2.751-8.584-5.86-11.904c0 0-3.765-5.61-13.151-6.075h-19.11v96.999s-.23 7.435 3.197 10.067c0 0 2.301 2.866 14.201 2.992v4.678H195.32v-4.455s7.348.214 11.46-1.71c0 0 6.172-1.611 6.069-11.006V60.869h-18.676s-7.997.228-12.82 5.266c0 0-4.46 4.697-6.694 12.941h-6.352l2.514-27.359z"/><g><path d="M59.349 230.854h29.634v-16.778h6.62v16.778h29.942v35.101h-6.312v-4.157H95.604v28.635h-6.62v-28.635H65.661v4.157h-6.312v-35.101zm6.312 25.248h23.323V236.55H65.661v19.552zm53.573-19.552h-23.63v19.552h23.631V236.55zM223.764 234.935l4.542-2.387a787.898 787.898 0 0 1 9.123 14.856c2.487-5.362 4.631-10.699 6.426-16.011l5.233 1.925c-2.539 6.901-5.337 13.457-8.389 19.666a657.293 657.293 0 0 1 8.774 15.435l-5.233 2.77a730.026 730.026 0 0 0-6.582-12.238 168.66 168.66 0 0 1-10.199 16.78l-4.617-2.656v16.049h-5.775V218.77h65.583v61.732c0 5.49-2.95 8.236-8.852 8.236-3.287 0-7.212-.051-11.777-.153a159.22 159.22 0 0 0-1.079-6.004c4.312.358 7.98.538 11.007.538 3.285 0 4.927-1.412 4.927-4.233v-54.573h-54.033v48.415c4.411-6.491 8.3-12.971 11.661-19.435a605.462 605.462 0 0 0-10.74-18.358zm25.633 3.694l4.464-2.617a816.17 816.17 0 0 1 7.967 13.2c2.949-5.875 5.451-11.661 7.505-17.356l5.232 2.001c-2.899 7.312-6.066 14.291-9.506 20.937a1030.829 1030.829 0 0 1 10.045 17.627l-5.156 2.925a715.154 715.154 0 0 0-8.006-14.778 189.256 189.256 0 0 1-10.159 16.241l-4.695-3.003c4.412-6.388 8.312-12.674 11.7-18.856a690.535 690.535 0 0 0-9.391-16.321zM176.08 268.571c9.056-8.903 14.957-20.68 17.703-35.33h14.201v-5.697h-36.178l5.542-2.77c-2.873-4.979-5.028-7.078-6.465-9.284l-5.928 2.771c1.463 2.26 3.489 4.358 6.08 9.283H134.09v5.697H187.201c-2.258 13.111-7.557 23.541-15.894 31.289-8.058-7.606-13.344-17.108-15.929-28.457h-6.148c2.81 12.329 8.526 23.164 17.227 32.461-7.416 5.412-18.462 10.327-33.138 14.739a256.966 256.966 0 0 1 4.619 6.005c15.214-5.493 26.286-10.931 33.212-16.319 6.903 5.465 17.59 10.699 32.062 15.702 1.229-1.795 3.025-4.028 5.386-6.697-14.854-3.95-25.694-8.414-32.518-13.393z"/></g></g></svg>