<?xml version="1.0" encoding="UTF-8" standalone="no"?>
<svg
   xmlns:dc="http://purl.org/dc/elements/1.1/"
   xmlns:cc="http://creativecommons.org/ns#"
   xmlns:rdf="http://www.w3.org/1999/02/22-rdf-syntax-ns#"
   xmlns:svg="http://www.w3.org/2000/svg"
   xmlns="http://www.w3.org/2000/svg"
   xmlns:sodipodi="http://sodipodi.sourceforge.net/DTD/sodipodi-0.dtd"
   xmlns:inkscape="http://www.inkscape.org/namespaces/inkscape"
   id="Layer_1"
   viewBox="0 0 1024 1024"
   version="1.1"
   inkscape:version="0.91 r13725"
   sodipodi:docname="brand-ft-logo-square-coloured.svg">
  <metadata
     id="metadata27">
    <rdf:RDF>
      <cc:Work
         rdf:about="">
        <dc:format>image/svg+xml</dc:format>
        <dc:type
           rdf:resource="http://purl.org/dc/dcmitype/StillImage" />
      </cc:Work>
    </rdf:RDF>
  </metadata>
  <defs
     id="defs25" />
  <sodipodi:namedview
     pagecolor="#ffffff"
     bordercolor="#666666"
     borderopacity="1"
     objecttolerance="10"
     gridtolerance="10"
     guidetolerance="10"
     inkscape:pageopacity="0"
     inkscape:pageshadow="2"
     inkscape:window-width="1394"
     inkscape:window-height="753"
     id="namedview23"
     showgrid="true"
     inkscape:zoom="0.32593203"
     inkscape:cx="135.95997"
     inkscape:cy="646.71102"
     inkscape:window-x="0"
     inkscape:window-y="0"
     inkscape:window-maximized="0"
     inkscape:current-layer="Layer_1">
    <inkscape:grid
       type="xygrid"
       id="grid3355" />
  </sodipodi:namedview>
  <style
     id="style3">.st0{fill:#fcd0b1}.st1{fill:#333}</style>
  <title
     id="title5">FT Logo Square Colour</title>
  <path
     class="st0"
     d="M-.3 0h1024.7v1024.8H-.3z"
     id="path7" />
  <path
     class="st1"
     d="M116.6 142.1v20.8c45.3 0 61.5 2.3 61.5 39.2v346.2c0 36.9-16.1 39.2-61.5 39.2v20.8h219.3v-20.8c-62.4 0-71.6-7.6-71.6-41.5V380.7h56.2c60.8 0 63.9 9.2 68.5 56.9h17.7V298.3H389c-4.6 47.7-7.7 57.7-68.5 57.7h-56.2V165.3h70.8c89.3 0 109.3 16.9 119.3 116.9h19.2V138.3c-12.3 2.3-26.2 3.8-65.4 3.8H116.6zm755.2 0H590.5c-39.2 0-53.1-1.5-65.4-3.8v143.8h19.2c9.9-100 30-116.9 119.2-116.9h24.6V546c0 36.1-14.6 41.5-72.3 41.5v20.8h230v-20.8c-57.7 0-71.6-5.3-71.6-41.5V165.3h24.6c89.2 0 109.2 16.9 119.2 116.9h19.2V138.3c-12.3 2.3-26.2 3.8-65.4 3.8z"
     id="path9" />
  <g
     id="g11"
     transform="matrix(27.583678,0,0,27.583678,-160.46637,-212.40335)">
    <path
       d="m 17.195,33.301 c 0,0 -0.486,0.701 -0.566,0.76 l -1.667,0 c 0,-1.037 10e-4,-1.731 0.004,-1.766 0.018,-0.296 0.192,-0.359 0.192,-0.359 l -1.498,-0.517 0,2.642 -1.958,0 c -0.252,-0.077 -1.28,-0.476 -1.28,-0.476 l 0,4.344 1.28,-0.444 0,-0.307 1.958,0 0,3.909 1.303,-0.516 c 0,-1.069 -10e-4,-2.258 -10e-4,-3.394 l 2,0 0,0.751 1.371,-0.517 0,-2.751 c -0.003,-0.033 0.335,-0.49 0.335,-0.49 l -1.473,-0.869 z m -5.36,3.638 -0.125,0 -0.009,0 0,-0.064 0,-0.024 0,-2.552 1.958,0 0,2.641 -1.824,0 z m 5.126,-0.064 0,0.064 -2,0 c 0,-0.964 0,-1.881 0,-2.641 l 2,0 0,2.577 z"
       id="path13"
       inkscape:connector-curvature="0"
       style="fill:#2b2d2f" />
    <g
       id="g15">
      <path
         d="m 23.75,33.132 c 0.074,0.6 1.237,0.524 1.05,-0.413 -0.188,-0.938 -1.988,-1.275 -1.988,-1.275 0,0 0.823,0.761 0.938,1.688 z"
         id="path17"
         inkscape:connector-curvature="0"
         style="fill:#2b2d2f" />
      <path
         d="m 28.878,39.26 c -1.608,-0.308 -2.86,-0.822 -3.757,-1.543 1.61,-2.193 1.858,-3.519 1.858,-3.519 0,0 -0.79,-0.349 -0.841,-0.36 l 0.732,0 0,0 2.01,0 -1.081,-1.26 -1.076,1.022 -6.76,0 0,0.133 0,0.104 0,0 2.23,0 c 0.292,1.699 0.676,3.069 1.353,4.112 -0.914,1.12 -2.19,2.088 -3.828,2.904 -0.204,0.121 -0.217,0.19 -0.041,0.207 0.172,0.004 0.437,-0.059 0.792,-0.188 1.645,-0.588 2.91,-1.283 3.797,-2.081 0.839,0.842 1.835,1.476 2.985,1.898 0.166,0.072 0.927,0.371 0.927,0.371 l 0.002,-0.001 c -0.016,-0.154 -0.014,-0.311 0.016,-0.468 0.104,-0.562 0.485,-1.014 1.007,-1.275 -0.125,-0.024 -0.247,-0.045 -0.325,-0.056 z m -4.711,-2.336 c -0.762,-0.656 -1.405,-1.686 -1.93,-3.086 l 3.026,0 c -0.281,1.307 -0.647,2.335 -1.096,3.086 z"
         id="path19"
         inkscape:connector-curvature="0"
         style="fill:#2b2d2f" />
    </g>
    <path
       d="m 38.458,31.5 -0.556,0.612 0,0.01 -5.552,0 0,-0.053 -0.003,0 -1.094,-0.469 0,9.244 1.094,-0.407 0,-1.823 c 0.438,-0.391 0.975,-1.045 1.608,-1.962 0.086,0.348 0.125,0.604 0.119,0.769 0.032,0.48 0.282,0.651 0.749,0.514 -0.207,0.273 -0.476,0.579 -0.804,0.916 -0.237,0.238 -0.33,0.366 -0.282,0.386 0.979,-0.489 1.846,-1.306 2.606,-2.446 0.051,0.21 0.088,0.484 0.107,0.823 -0.026,0.506 0.142,0.726 0.503,0.656 0.5,-0.099 0.717,-0.414 0.651,-0.947 -0.138,-0.562 -0.401,-1.088 -0.788,-1.578 0.249,-0.631 0.799,-2.294 0.799,-2.294 l -1.238,-0.829 c 0,0 -0.202,1.426 -0.371,2.235 -0.102,-0.065 -0.254,-0.199 -0.457,-0.4 -0.108,-0.101 -0.573,-0.381 -0.573,-0.381 0.358,0.456 0.601,1.04 0.833,1.53 -0.145,0.573 -0.361,1.142 -0.65,1.707 -0.056,-0.5 -0.3,-1.056 -0.729,-1.667 0.052,-0.122 0.146,-0.393 0.28,-0.814 0.095,-0.309 0.219,-0.635 0.267,-0.756 l 0.264,-0.682 -1.25,-0.772 c 0,0 -0.146,1.498 -0.253,2.156 -0.262,-0.282 -0.727,-0.684 -1.391,-1.203 l 0.003,-1.221 5.552,0 0.004,7.108 c 0,0.02 -0.042,0.182 -0.26,0.188 -0.586,0.018 -1.463,-0.106 -1.463,-0.106 0,0 1.236,0.405 1.463,1.339 0.178,0.081 0.731,0.221 1.062,0.023 0.299,-0.176 0.387,-0.675 0.389,-0.859 l 0,-7.603 0.288,-0.306 -0.927,-0.638 z m -4.896,4.065 c -0.285,1.112 -0.689,2.04 -1.214,2.783 l 0,-4.538 c 0.408,0.412 0.813,0.997 1.214,1.755 z"
       id="path21"
       inkscape:connector-curvature="0"
       style="fill:#2b2d2f" />
  </g>
</svg>
