<svg xmlns="http://www.w3.org/2000/svg" width="342px" height="342px" viewBox="0 0 342 342">
<rect id="background" fill="#FCDBC0" width="100%" height="100%" rx="50%" ry="50%"/>
<g id="shape" fill="#475257">
	<g>
		<path d="M60.081,51.717h103.65l0.803,27.359h-5.151c0,0-2.878-10.087-8.371-13.631c0,0-4.227-4.349-23.234-4.576
			h-21.545c0,0-5.95-0.938-5.95,5.608v40.073h13.979c0,0,9.482,0,15.111-3.662c0,0,5.154-3.662,5.947-12.709h4.807v43.633h-4.807
			c0,0-1.254-9.283-6.186-13.169c0,0-4.577-4.576-15.333-4.922h-13.518v42.501c0,0,0.117,7.308,3.097,9.708
			c0,0,2.853,3.324,15.003,3.224v4.678H59.751v-4.579c0,0,8.365,0,11.915-2.515c0,0,3.304-1.251,3.765-12.256V68.089
			c0,0-0.123-6.074-3.661-9.061c0,0-3.088-2.628-11.689-2.51V51.717z"/>
		<path d="M170.821,51.717h108.786l2.642,27.359h-6.312c0,0-2.751-8.584-5.86-11.904c0,0-3.765-5.61-13.151-6.075
			h-19.11v96.999c0,0-0.23,7.435,3.197,10.067c0,0,2.301,2.866,14.201,2.992v4.678H195.32v-4.455c0,0,7.348,0.214,11.46-1.71
			c0,0,6.172-1.611,6.069-11.006V60.869h-18.676c0,0-7.997,0.228-12.82,5.266c0,0-4.46,4.697-6.694,12.941h-6.352L170.821,51.717z"
			/>
	</g>
	<g>
		<path d="M59.349,230.854h29.634v-16.778h6.62v16.778h29.942v35.101h-6.312v-4.157H95.604v28.635h-6.62v-28.635
			H65.661v4.157h-6.312V230.854z M65.661,256.102h23.323V236.55H65.661V256.102z M119.234,236.55H95.604v19.552h23.631V236.55z"/>
		<path d="M223.764,234.935l4.542-2.387c3.053,4.849,6.095,9.802,9.123,14.856
			c2.487-5.362,4.631-10.699,6.426-16.011l5.233,1.925c-2.539,6.901-5.337,13.457-8.389,19.666
			c2.95,5.029,5.876,10.174,8.774,15.435l-5.233,2.77c-2.131-4.054-4.324-8.134-6.582-12.238c-3.155,5.927-6.557,11.52-10.199,16.78
			l-4.617-2.656v16.049h-5.775V218.77h65.583v61.732c0,5.49-2.95,8.236-8.852,8.236c-3.287,0-7.212-0.051-11.777-0.153
			c-0.257-1.644-0.615-3.645-1.079-6.004c4.312,0.358,7.98,0.538,11.007,0.538c3.285,0,4.927-1.412,4.927-4.233v-54.573h-54.033
			v48.415c4.411-6.491,8.3-12.971,11.661-19.435C231.09,247.212,227.511,241.092,223.764,234.935z M249.397,238.629l4.464-2.617
			c2.565,4.156,5.222,8.558,7.967,13.2c2.949-5.875,5.451-11.661,7.505-17.356l5.232,2.001c-2.899,7.312-6.066,14.291-9.506,20.937
			c3.235,5.541,6.583,11.419,10.045,17.627l-5.156,2.925c-2.566-4.875-5.235-9.801-8.006-14.778
			c-3.181,5.696-6.568,11.109-10.159,16.241l-4.695-3.003c4.412-6.388,8.312-12.674,11.7-18.856
			C255.785,249.559,252.655,244.12,249.397,238.629z"/>
		<path d="M176.08,268.571c9.056-8.903,14.957-20.68,17.703-35.33h14.201v-5.697h-36.178l5.542-2.77
			c-2.873-4.979-5.028-7.078-6.465-9.284l-5.928,2.771c1.463,2.26,3.489,4.358,6.08,9.283H134.09v5.697h7.501h7.008h6.158h5.967
			h26.477c-2.258,13.111-7.557,23.541-15.894,31.289c-8.058-7.606-13.344-17.108-15.929-28.457h-6.148
			c2.81,12.329,8.526,23.164,17.227,32.461c-7.416,5.412-18.462,10.327-33.138,14.739c1.744,2.207,3.284,4.208,4.619,6.005
			c15.214-5.493,26.286-10.931,33.212-16.319c6.903,5.465,17.59,10.699,32.062,15.702c1.229-1.795,3.025-4.028,5.386-6.697
			C193.744,278.014,182.904,273.55,176.08,268.571z"/>
	</g>
</g>
</svg>
