<?xml version="1.0" encoding="utf-8"?>
<!-- Generator: Adobe Illustrator 16.0.0, SVG Export Plug-In . SVG Version: 6.00 Build 0)  -->
<!DOCTYPE svg PUBLIC "-//W3C//DTD SVG 1.1//EN" "http://www.w3.org/Graphics/SVG/1.1/DTD/svg11.dtd">
<svg version="1.1" id="图层_1" xmlns="http://www.w3.org/2000/svg" xmlns:xlink="http://www.w3.org/1999/xlink" x="0px" y="0px"
	 width="50px" height="50px" viewBox="0 0 50 50" enable-background="new 0 0 50 50" xml:space="preserve">
<rect fill="#F8D5B5" width="50" height="50"/>
<g>
	<path fill="#2B2D2F" d="M17.195,33.301c0,0-0.486,0.701-0.566,0.76h-1.667c0-1.037,0.001-1.731,0.004-1.766
		c0.018-0.296,0.192-0.359,0.192-0.359l-1.498-0.517v2.642h-1.958c-0.252-0.077-1.28-0.476-1.28-0.476v4.344l1.28-0.444v-0.307
		h1.958v3.909l1.303-0.516c0-1.069-0.001-2.258-0.001-3.394h2v0.751l1.371-0.517v-2.751c-0.003-0.033,0.335-0.49,0.335-0.49
		L17.195,33.301z M11.835,36.939H11.71h-0.009v-0.064v-0.024v-2.552h1.958v2.641H11.835z M16.961,36.875v0.064h-2
		c0-0.964,0-1.881,0-2.641h2V36.875z"/>
	<g>
		<path fill="#2B2D2F" d="M23.75,33.132c0.074,0.6,1.237,0.524,1.05-0.413c-0.188-0.938-1.988-1.275-1.988-1.275
			S23.635,32.205,23.75,33.132z"/>
		<path fill="#2B2D2F" d="M28.878,39.26c-1.608-0.308-2.86-0.822-3.757-1.543c1.61-2.193,1.858-3.519,1.858-3.519
			s-0.79-0.349-0.841-0.36h0.732l0,0h2.01l-1.081-1.26l-1.076,1.022h-6.76v0.133v0.104l0,0h2.23
			c0.292,1.699,0.676,3.069,1.353,4.112c-0.914,1.12-2.19,2.088-3.828,2.904c-0.204,0.121-0.217,0.19-0.041,0.207
			c0.172,0.004,0.437-0.059,0.792-0.188c1.645-0.588,2.91-1.283,3.797-2.081c0.839,0.842,1.835,1.476,2.985,1.898
			c0.166,0.072,0.927,0.371,0.927,0.371l0.002-0.001c-0.016-0.154-0.014-0.311,0.016-0.468c0.104-0.562,0.485-1.014,1.007-1.275
			C29.078,39.292,28.956,39.271,28.878,39.26z M24.167,36.924c-0.762-0.656-1.405-1.686-1.93-3.086h3.026
			C24.982,35.145,24.616,36.173,24.167,36.924z"/>
	</g>
	<path fill="#2B2D2F" d="M38.458,31.5l-0.556,0.612v0.01h-5.552v-0.053h-0.003l-1.094-0.469v9.244l1.094-0.407v-1.823
		c0.438-0.391,0.975-1.045,1.608-1.962c0.086,0.348,0.125,0.604,0.119,0.769c0.032,0.48,0.282,0.651,0.749,0.514
		c-0.207,0.273-0.476,0.579-0.804,0.916c-0.237,0.238-0.33,0.366-0.282,0.386c0.979-0.489,1.846-1.306,2.606-2.446
		c0.051,0.21,0.088,0.484,0.107,0.823c-0.026,0.506,0.142,0.726,0.503,0.656c0.5-0.099,0.717-0.414,0.651-0.947
		c-0.138-0.562-0.401-1.088-0.788-1.578c0.249-0.631,0.799-2.294,0.799-2.294l-1.238-0.829c0,0-0.202,1.426-0.371,2.235
		c-0.102-0.065-0.254-0.199-0.457-0.4c-0.108-0.101-0.573-0.381-0.573-0.381c0.358,0.456,0.601,1.04,0.833,1.53
		c-0.145,0.573-0.361,1.142-0.65,1.707c-0.056-0.5-0.3-1.056-0.729-1.667c0.052-0.122,0.146-0.393,0.28-0.814
		c0.095-0.309,0.219-0.635,0.267-0.756l0.264-0.682l-1.25-0.772c0,0-0.146,1.498-0.253,2.156c-0.262-0.282-0.727-0.684-1.391-1.203
		l0.003-1.221h5.552l0.004,7.108c0,0.02-0.042,0.182-0.26,0.188c-0.586,0.018-1.463-0.106-1.463-0.106s1.236,0.405,1.463,1.339
		c0.178,0.081,0.731,0.221,1.062,0.023c0.299-0.176,0.387-0.675,0.389-0.859v-7.603l0.288-0.306L38.458,31.5z M33.562,35.565
		c-0.285,1.112-0.689,2.04-1.214,2.783v-4.538C32.756,34.222,33.161,34.807,33.562,35.565z"/>
</g>
<g>
	<path fill="#2B2D30" d="M16.728,10.937v5.979h1.76c1.905,0,2.001-0.313,2.146-1.808h0.555v4.364h-0.555
		c-0.144-1.495-0.241-1.784-2.146-1.784h-1.76v5.184c0,1.06,0.289,1.301,2.242,1.301v0.651h-6.871v-0.651
		c1.422,0,1.928-0.072,1.928-1.229V12.094c0-1.157-0.506-1.229-1.928-1.229v-0.651h9.137c1.229,0,1.664-0.048,2.049-0.121v4.508
		h-0.603c-0.313-3.134-0.94-3.665-3.737-3.665H16.728z"/>
	<path fill="#2B2D30" d="M35.764,10.214c1.229,0,1.663-0.048,2.049-0.121v4.508h-0.604c-0.312-3.133-0.939-3.664-3.735-3.664h-0.772
		v11.934c0,1.132,0.435,1.301,2.243,1.301v0.651h-7.209v-0.651c1.809,0,2.266-0.168,2.266-1.301V10.937H29.23
		c-2.797,0-3.424,0.531-3.737,3.664h-0.603v-4.508c0.386,0.073,0.819,0.121,2.05,0.121H35.764z"/>
</g>
</svg>
