<?xml version="1.0" encoding="utf-8"?>
<!-- Generator: Adobe Illustrator 16.0.0, SVG Export Plug-In . SVG Version: 6.00 Build 0)  -->
<!DOCTYPE svg PUBLIC "-//W3C//DTD SVG 1.1//EN" "http://www.w3.org/Graphics/SVG/1.1/DTD/svg11.dtd">
<svg version="1.1" id="图层_1" xmlns="http://www.w3.org/2000/svg" xmlns:xlink="http://www.w3.org/1999/xlink" x="0px" y="0px"
	 width="50px" height="10.375px" viewBox="0 0 50 10.375" enable-background="new 0 0 50 10.375" xml:space="preserve">
<path fill="#2B2D2F" d="M25.898,2.036c0,0-0.526,0.759-0.613,0.823h-1.805c0-1.122,0.002-1.873,0.004-1.911
	c0.019-0.32,0.208-0.389,0.208-0.389L22.073,0v2.858h-2.12c-0.272-0.083-1.384-0.515-1.384-0.515v4.7l1.384-0.481V6.231h2.12v4.23
	l1.41-0.558c0-1.158-0.002-2.444-0.002-3.672h2.165v0.812l1.483-0.559V3.508c-0.004-0.037,0.362-0.53,0.362-0.53L25.898,2.036z
	 M20.099,5.974h-0.135h-0.011v-0.07V5.877V3.116h2.12v2.858H20.099z M25.646,5.904v0.07h-2.165c0-1.043,0-2.036,0-2.858h2.165V5.904
	z"/>
<g>
	<path fill="#2B2D2F" d="M32.991,1.853c0.08,0.649,1.34,0.568,1.137-0.446s-2.15-1.38-2.15-1.38S32.867,0.851,32.991,1.853z"/>
	<path fill="#2B2D2F" d="M38.54,8.484c-1.74-0.333-3.095-0.89-4.065-1.67c1.741-2.373,2.011-3.807,2.011-3.807
		s-0.855-0.377-0.911-0.39h0.793v0h2.175l-1.17-1.362L36.207,2.36h-7.313v0.144v0.113v0h2.414c0.314,1.838,0.73,3.322,1.464,4.45
		c-0.989,1.212-2.37,2.26-4.143,3.142c-0.22,0.132-0.234,0.207-0.044,0.225c0.187,0.004,0.472-0.064,0.857-0.203
		c1.779-0.637,3.148-1.388,4.108-2.253c0.908,0.913,1.986,1.598,3.23,2.055c0.18,0.077,1.004,0.401,1.004,0.401l0.001-0.001
		c-0.016-0.166-0.014-0.335,0.018-0.505c0.111-0.609,0.525-1.097,1.089-1.381C38.756,8.52,38.625,8.496,38.54,8.484z M33.441,5.957
		c-0.824-0.71-1.52-1.823-2.088-3.339h3.275C34.324,4.031,33.929,5.144,33.441,5.957z"/>
</g>
<path fill="#2B2D2F" d="M48.906,0.087L48.306,0.75v0.011h-6.008V0.704h-0.004L41.11,0.197V10.2l1.185-0.442V7.787
	c0.474-0.424,1.054-1.131,1.74-2.124c0.093,0.377,0.135,0.655,0.128,0.832c0.036,0.52,0.307,0.705,0.812,0.555
	c-0.225,0.295-0.514,0.627-0.87,0.993c-0.256,0.256-0.356,0.395-0.305,0.417c1.058-0.53,1.997-1.413,2.819-2.648
	c0.057,0.228,0.096,0.525,0.117,0.891c-0.029,0.548,0.152,0.785,0.545,0.71c0.54-0.107,0.774-0.448,0.703-1.024
	c-0.148-0.609-0.434-1.178-0.854-1.708c0.271-0.683,0.866-2.482,0.866-2.482l-1.34-0.896c0,0-0.22,1.542-0.402,2.419
	c-0.109-0.071-0.274-0.216-0.495-0.433c-0.115-0.109-0.62-0.414-0.62-0.414C45.527,3.368,45.79,4,46.042,4.531
	c-0.156,0.619-0.392,1.235-0.704,1.846c-0.061-0.541-0.323-1.142-0.79-1.804c0.057-0.131,0.158-0.424,0.304-0.88
	c0.104-0.335,0.238-0.688,0.288-0.819l0.285-0.736l-1.353-0.836c0,0-0.158,1.621-0.272,2.333c-0.285-0.305-0.786-0.74-1.505-1.302
	l0.003-1.321h6.008l0.005,7.693c0,0.021-0.047,0.196-0.282,0.203c-0.634,0.02-1.582-0.116-1.582-0.116s1.337,0.439,1.582,1.45
	c0.192,0.087,0.791,0.238,1.149,0.026c0.323-0.191,0.417-0.732,0.42-0.931V1.11l0.312-0.331L48.906,0.087z M43.608,4.487
	c-0.31,1.203-0.748,2.207-1.313,3.011v-4.91C42.736,3.032,43.175,3.666,43.608,4.487z"/>
<path fill="#2B2D2F" d="M2.907,1.135V4.89h1.105c1.196,0,1.257-0.197,1.348-1.135h0.348v2.74H5.36
	C5.27,5.557,5.208,5.375,4.013,5.375H2.907V8.63c0,0.667,0.182,0.818,1.408,0.818v0.409H0V9.448c0.893,0,1.211-0.045,1.211-0.772
	V1.862C1.211,1.135,0.893,1.09,0,1.09V0.681h5.739c0.772,0,1.045-0.03,1.287-0.076v2.832H6.647C6.451,1.468,6.056,1.135,4.3,1.135
	H2.907z"/>
<path fill="#2B2D2F" d="M14.864,0.681c0.771,0,1.044-0.03,1.287-0.076v2.831h-0.379c-0.196-1.968-0.59-2.301-2.346-2.301H12.94V8.63
	c0,0.712,0.273,0.818,1.409,0.818v0.409H9.821V9.448c1.136,0,1.423-0.106,1.423-0.818V1.135H10.76c-1.756,0-2.15,0.333-2.347,2.301
	H8.035V0.605C8.277,0.651,8.55,0.681,9.322,0.681H14.864z"/>
</svg>
