<?xml version="1.0" encoding="UTF-8"?><!DOCTYPE svg PUBLIC "-//W3C//DTD SVG 1.1//EN" "http://www.w3.org/Graphics/SVG/1.1/DTD/svg11.dtd"><svg xmlns="http://www.w3.org/2000/svg"><symbol id="facebook"><path d="M56.186 89.948V53.504H68.42L70.25 39.3H56.186v-9.067c0-4.112 1.14-6.914 7.04-6.914l7.52-.005V10.612c-1.3-.173-5.766-.56-10.96-.56-10.844 0-18.267 6.62-18.267 18.775V39.3H29.253v14.204H41.52v36.444h14.666z" class="foreground"/></symbol><symbol id="link"><path d="M63.668 36.71c-3.069 0-5.996 1.18-8.246 3.313l4.303 4.735a5.705 5.705 0 0 1 3.943-1.582h12.5c3.197 0 5.797 2.657 5.797 5.926v4.3c0 3.27-2.6 5.926-5.797 5.926h-12.5c-1.467 0-2.87-.56-3.943-1.584l-4.303 4.735c2.248 2.134 5.177 3.312 8.244 3.312h12.5v.002c6.683 0 12.12-5.56 12.12-12.39v-4.301c0-6.832-5.435-12.391-12.118-12.391h-12.5zm-39.008.003c-6.68 0-12.117 5.558-12.117 12.39V53.4c0 6.833 5.436 12.391 12.117 12.391h12.5l-.004.002c3.069 0 5.996-1.177 8.246-3.313l-4.3-4.734a5.708 5.708 0 0 1-3.944 1.582h-12.5c-3.197 0-5.797-2.657-5.797-5.926v-4.3c0-3.27 2.6-5.926 5.797-5.926h12.5c1.469 0 2.869.56 3.944 1.584l4.302-4.735c-2.25-2.136-5.175-3.312-8.244-3.312h-12.5zm39.781 11.566v.002H36.387c-1.524 0-4.178.871-4.178 2.317v1.625c0 1.445 2.656 1.863 4.178 1.863H64.44c1.522 0 1.844-.417 1.844-1.86v-1.628c0-1.446-.322-2.319-1.844-2.319z" class="foreground"/></symbol><symbol id="linkedin"><path d="M27.211 20C23.225 20 20 23.237 20 27.22c0 3.988 3.226 7.224 7.211 7.224 3.976 0 7.207-3.235 7.207-7.223 0-3.983-3.231-7.22-7.206-7.22zm37.873 18.926c-6.049 0-10.106 3.322-11.767 6.473h-.166v-5.477H41.225V80H53.65V60.174c0-5.227.992-10.289 7.462-10.289 6.377 0 6.463 5.977 6.463 10.624V80H80V58.016c0-10.79-2.323-19.091-14.916-19.091zm-44.093.997V80h12.434V39.923H20.991z" class="foreground"/></symbol><symbol id="rss"><path d="M34.198 75.15c0 5.158-4.192 9.35-9.35 9.35-5.157 0-9.349-4.192-9.349-9.35 0-5.156 4.192-9.348 9.35-9.348a9.34 9.34 0 0 1 9.349 9.349zM15.499 38.949v13.846c17.403.178 31.503 14.303 31.681 31.68h13.846c-.178-25.05-20.451-45.348-45.527-45.526zm0-9.68c14.71.077 28.53 5.818 38.922 16.235C64.837 55.919 70.604 69.765 70.655 84.5H84.5c-.077-38.083-30.919-68.95-69.002-69.077v13.846z" class="foreground"/></symbol><symbol id="twitter"><path d="M85 28.29a28.715 28.715 0 0 1-8.248 2.262 14.404 14.404 0 0 0 6.314-7.946 28.755 28.755 0 0 1-9.12 3.486 14.343 14.343 0 0 0-10.482-4.536c-7.932 0-14.362 6.43-14.362 14.361 0 1.126.127 2.222.372 3.273-11.936-.599-22.518-6.316-29.601-15.005a14.293 14.293 0 0 0-1.944 7.22c0 4.983 2.535 9.378 6.389 11.954a14.303 14.303 0 0 1-6.505-1.797 9.01 9.01 0 0 0-.002.18c0 6.96 4.95 12.764 11.52 14.083a14.384 14.384 0 0 1-6.485.246c1.828 5.706 7.131 9.858 13.416 9.974a28.816 28.816 0 0 1-17.836 6.147 29.22 29.22 0 0 1-3.426-.2 40.65 40.65 0 0 0 22.014 6.452c26.416 0 40.861-21.884 40.861-40.861 0-.623-.014-1.242-.041-1.858A29.187 29.187 0 0 0 85 28.29" class="foreground"/></symbol><symbol id="wechat"><path d="M35.27 21.42C14.608 25.124 7.722 48.562 24.156 59.29c.901.581.901.517-.452 4.567l-1.16 3.468 4.163-2.24 4.163-2.24 2.208.538c2.317.581 5.278.99 7.251.99h1.181l-.407-1.572c-3.239-11.978 7.96-23.846 22.528-23.846h1.973l-.408-1.422C62 26.31 48.505 19.052 35.268 21.42zm-1.803 10.49c2.187 1.487 2.317 4.697.214 6.075-3.41 2.24-7.4-1.702-5.106-5.062 1.008-1.508 3.433-2.003 4.892-1.013zm17.592 0c3.605 2.435.901 8.057-3.132 6.506-2.917-1.12-3.26-5.147-.536-6.59 1.073-.583 2.746-.539 3.669.085zm7.96 8.876c-10.233 1.872-17.334 9.671-16.927 18.633.537 11.998 14.546 20.27 27.997 16.565l1.587-.431 3.346 1.81c1.847 1.012 3.39 1.745 3.433 1.658.044-.107-.32-1.4-.793-2.887-1.072-3.317-1.093-3.08.344-4.113 16.176-11.655 1.973-35.05-18.987-31.237zm-.407 9.671c.901.604 1.374 2.111.986 3.21-.815 2.349-4.314 2.521-5.257.26-1.073-2.608 1.888-5.02 4.27-3.469zm14.33.258c1.416 1.356 1.182 3.663-.472 4.524-2.531 1.292-5.191-1.292-3.882-3.77.857-1.594 3.067-1.981 4.355-.754zM53.79 73.988" class="foreground"/></symbol><symbol id="weibo"><path d="M66.146 21.646c-1.192.02-2.385.155-3.558.405a2.68 2.68 0 0 0-2.057 3.18 2.671 2.671 0 0 0 3.178 2.054c4.453-.946 9.272.437 12.537 4.059a13.163 13.163 0 0 1 2.752 12.883 2.682 2.682 0 0 0 5.102 1.65v-.008a18.485 18.485 0 0 0-3.875-18.11c-3.736-4.143-8.912-6.201-14.079-6.113zm-21.724 8.002c-4.936-.09-12.377 3.823-18.99 10.436C18.835 46.681 15 53.683 15 59.738c0 11.57 14.844 18.612 29.361 18.612 19.038 0 31.702-11.059 31.702-19.838.01-5.312-4.463-8.327-8.481-9.573-.985-.299-1.662-.49-1.15-1.785 1.12-2.81 1.236-5.236.02-6.974-2.27-3.245-8.49-3.07-15.618-.086 0 0-2.242.974-1.662-.793 1.091-3.525.928-6.47-.772-8.18-.965-.968-2.333-1.442-3.978-1.473zm22.467 1.52a9.014 9.014 0 0 0-2.31.193c-1.247.261-2.039 1.499-1.778 2.744a2.303 2.303 0 0 0 2.734 1.768 4.416 4.416 0 0 1 4.2 1.352 4.41 4.41 0 0 1 .917 4.318 2.315 2.315 0 0 0 1.489 2.906 2.312 2.312 0 0 0 2.908-1.486 9.02 9.02 0 0 0-1.885-8.828 8.981 8.981 0 0 0-6.275-2.967zm-23.04 14.71c13.088 0 23.704 6.607 23.704 14.759 0 8.151-10.616 14.758-23.703 14.758-13.088 0-23.702-6.607-23.702-14.758 0-8.152 10.614-14.758 23.702-14.758zm-1.437 6.245c-4.569.048-9.046 2.606-10.992 6.553-2.444 4.954-.077 10.46 5.486 12.256 5.776 1.864 12.575-.995 14.942-6.336 2.337-5.235-.58-10.614-6.287-12.092a11.968 11.968 0 0 0-3.149-.381zm1.54 6.469c.183-.004.365.026.536.094.696.25.947 1.033.56 1.738-.405.695-1.304 1.024-2 .734-.695-.28-.907-1.062-.51-1.738a1.721 1.721 0 0 1 1.413-.828zm-5.315 1.63a3.79 3.79 0 0 1 1.418.29c1.816.782 2.396 2.838 1.295 4.644-1.12 1.787-3.526 2.57-5.332 1.748-1.778-.811-2.308-2.886-1.188-4.634.833-1.304 2.345-2.066 3.807-2.047z" class="foreground"/></symbol></svg>